<?xml version="1.0" encoding="UTF-8" standalone="no"?>
<svg
   xmlns:dc="http://purl.org/dc/elements/1.1/"
   xmlns:cc="http://creativecommons.org/ns#"
   xmlns:rdf="http://www.w3.org/1999/02/22-rdf-syntax-ns#"
   xmlns:svg="http://www.w3.org/2000/svg"
   xmlns="http://www.w3.org/2000/svg"
   xmlns:sodipodi="http://sodipodi.sourceforge.net/DTD/sodipodi-0.dtd"
   xmlns:inkscape="http://www.inkscape.org/namespaces/inkscape"
   width="127.50023mm"
   height="130.2059mm"
   viewBox="0 0 127.50023 130.2059"
   version="1.1"
   id="svg8"
   inkscape:version="1.0.1 (3bc2e813f5, 2020-09-07)"
   sodipodi:docname="logo.svg">
  <defs
     id="defs2" />
  <sodipodi:namedview
     id="base"
     pagecolor="#ffffff"
     bordercolor="#666666"
     borderopacity="1.0"
     inkscape:pageopacity="0.0"
     inkscape:pageshadow="2"
     inkscape:zoom="0.35"
     inkscape:cx="186.0773"
     inkscape:cy="378.67833"
     inkscape:document-units="mm"
     inkscape:current-layer="layer1"
     inkscape:document-rotation="0"
     showgrid="false"
     inkscape:window-width="1366"
     inkscape:window-height="715"
     inkscape:window-x="-8"
     inkscape:window-y="-8"
     inkscape:window-maximized="1"
     fit-margin-top="0"
     fit-margin-left="0"
     fit-margin-right="0"
     fit-margin-bottom="0" />
  <metadata
     id="metadata5">
    <rdf:RDF>
      <cc:Work
         rdf:about="">
        <dc:format>image/svg+xml</dc:format>
        <dc:type
           rdf:resource="http://purl.org/dc/dcmitype/StillImage" />
        <dc:title></dc:title>
      </cc:Work>
    </rdf:RDF>
  </metadata>
  <g
     inkscape:label="Layer 1"
     inkscape:groupmode="layer"
     id="layer1"
     transform="translate(-43.613321,-50.551611)">
    <path
       id="path42"
       style="fill:#000000;stroke-width:0.0846667"
       d="m 108.0607,180.32488 c 0.12017,-0.41888 0.98733,-4.93736 4.18813,-21.82283 1.24689,-6.57782 2.31358,-12.12021 2.69684,-14.01234 0.13103,-0.64693 0.17932,-0.762 0.31979,-0.762 0.2163,0 0.89546,0.91428 2.38048,3.20457 5.43854,8.38769 5.49856,8.47575 5.62356,8.25238 0.0976,-0.17438 -0.009,-0.92003 -1.02349,-7.13895 -1.05844,-6.49039 -1.41677,-8.89789 -1.3363,-8.97835 0.0958,-0.0958 2.3116,1.38884 11.96253,8.01518 11.75425,8.07048 13.85026,9.47217 14.16414,9.47217 0.26738,0 -1.54308,-2.97804 -9.11056,-14.986 -5.45436,-8.65489 -7.55125,-12.03203 -7.55125,-12.16164 0,-0.0249 0.16193,-0.0197 0.35983,0.0116 0.42559,0.0672 5.81465,1.2538 11.91684,2.62394 2.39818,0.53848 4.45264,0.96856 4.56547,0.95576 0.11283,-0.0128 0.22129,-0.0725 0.24103,-0.13256 0.0562,-0.17108 -0.41541,-0.56528 -2.40583,-2.01092 -5.99185,-4.35188 -9.25359,-6.80224 -9.11184,-6.84522 0.0822,-0.0249 1.864,-0.42547 3.9595,-0.89007 6.53915,-1.44982 14.75003,-3.31066 23.06499,-5.22723 8.37836,-1.93118 8.31617,-1.91466 8.08382,-2.14702 -0.1149,-0.1149 -4.43748,-0.97791 -20.77714,-4.14824 -3.14325,-0.60987 -7.80738,-1.5262 -10.36473,-2.03628 -2.55734,-0.51008 -4.66236,-0.92742 -4.67783,-0.92742 -0.0155,0 -0.0281,-0.0489 -0.0281,-0.10872 0,-0.13679 0.69624,-0.81027 1.524,-1.4742 0.34925,-0.28013 2.21615,-1.68183 4.14867,-3.1149 4.87926,-3.61824 6.604,-4.958028 6.604,-5.130058 0,-0.16356 -0.64537,-0.0609 -2.9312,0.46623 -5.86666,1.352908 -14.80649,3.293868 -14.95033,3.245918 -0.0431,-0.0144 0.21497,-0.48253 0.57349,-1.04036 1.8188,-2.829888 2.88053,-4.507148 6.00164,-9.480908 3.4761,-5.53945 8.24127,-13.19916 9.17631,-14.75032 0.45344,-0.75222 0.63294,-1.20934 0.47488,-1.20934 -0.2178,0 -2.33864,1.41138 -9.60546,6.39227 -9.36759,6.42082 -12.98797,8.85667 -14.64733,9.85498 l -0.71967,0.43296 -0.027,-0.21398 c -0.034,-0.26968 0.24636,-2.16995 1.04902,-7.11057 1.33978,-8.24669 1.49831,-9.27649 1.43727,-9.33631 -0.18358,-0.17988 -1.1732,1.21707 -4.15483,5.86498 -1.01566,1.58327 -2.32432,3.60257 -2.90813,4.48733 l -1.06147,1.60867 -0.45225,-2.286 c -0.24873,-1.2573 -1.68692,-8.763 -3.19597,-16.67933 -3.59434,-18.85555 -3.52267,-18.49967 -3.72558,-18.49967 -0.235,0 -0.65188,1.69033 -2.37002,9.60967 -2.77107,12.77258 -5.930391,27.10014 -6.042693,27.40372 -0.07642,0.20659 -0.514078,-0.42242 -3.397114,-4.88239 -1.083666,-1.6764 -2.407991,-3.6957 -2.942944,-4.48733 -1.481093,-2.19175 -1.714645,-2.43586 -1.714645,-1.79212 0,0.14972 0.610778,3.90985 1.357285,8.35583 0.746508,4.44599 1.346583,8.15335 1.3335,8.23857 -0.01898,0.12364 -0.57993,-0.21679 -2.775452,-1.68438 -3.341471,-2.2336 -8.100248,-5.48408 -14.478,-9.8892 -7.138073,-4.93028 -7.991009,-5.47389 -8.223607,-5.2413 -0.162516,0.16252 -0.112618,0.24734 3.201235,5.4416 5.293014,8.29647 12.981039,20.643108 12.981039,20.846998 0,0.10542 -0.113964,0.0817 -5.799667,-1.20835 -11.914848,-2.703348 -11.644676,-2.645868 -11.783451,-2.507088 -0.128218,0.12822 0.43411,0.59665 3.232118,2.692428 1.024467,0.76735 3.081867,2.28511 4.572,3.37281 4.342983,3.17007 5.063592,3.81001 4.423833,3.92862 -0.104775,0.0194 -0.9144,0.15729 -1.799166,0.30637 -1.526273,0.25718 -4.806614,0.8865 -13.631333,2.61515 -2.142067,0.4196 -6.085417,1.18641 -8.763,1.70401 -7.64836,1.47851 -11.456326,2.29148 -11.566236,2.46932 -0.02922,0.0473 0.0018,0.14093 0.06899,0.2081 0.07067,0.0707 2.43835,0.63978 5.619185,1.35067 16.021143,3.5806 18.695377,4.1809 22.430394,5.03506 5.010401,1.14583 6.909706,1.62085 6.920831,1.73089 0.0097,0.0959 -0.247249,0.29021 -4.239203,3.205 -5.72044,4.17689 -7.200813,5.34271 -7.017273,5.52625 0.126005,0.12601 3.249312,-0.51562 9.789522,-2.01106 3.554769,-0.81281 6.959398,-1.5318 7.010682,-1.48051 0.06529,0.0653 -2.474163,4.20391 -8.162295,13.30232 -6.441064,10.30277 -8.323931,13.39655 -8.323931,13.67724 0,0.30054 2.043556,-1.04434 13.081,-8.60874 10.238743,-7.01702 11.441563,-7.83141 12.170833,-8.24054 l 0.486833,-0.27312 -2.54e-4,0.32558 c -3.38e-4,0.43153 -0.366731,2.89719 -1.098981,7.39523 -0.933723,5.73563 -1.256781,8.15943 -1.100414,8.25607 0.08971,0.0554 1.33495,-1.80774 4.1032,-6.13938 3.054344,-4.77931 3.796057,-5.87346 3.861533,-5.69647 0.220357,0.59568 2.125636,9.12459 5.622136,25.16721 1.28356,5.88925 2.39285,10.93581 2.46509,11.21457 0.2775,1.07092 0.54082,1.25932 0.74847,0.53552 z m -0.96689,-3.64842 c -0.005,-0.12451 -5.70734,-26.31855 -7.284041,-33.45675 -0.833148,-3.7719 -1.766639,-8.02005 -2.074426,-9.44033 -0.307787,-1.42028 -0.591764,-2.72628 -0.631061,-2.90222 -0.07143,-0.31979 -0.07117,-0.32018 0.892223,-1.3756 2.730275,-2.99111 3.480765,-4.02496 7.362905,-10.14301 1.2063,-1.90107 2.20836,-3.41124 2.2268,-3.35593 0.0184,0.0553 -0.0277,3.78243 -0.10247,8.28249 -0.0958,5.76496 -0.1456,14.67491 -0.16852,30.16187 -0.0234,15.77969 -0.0588,22.02517 -0.12568,22.14033 -0.0512,0.0882 -0.0943,0.12834 -0.0957,0.0892 z m 37.33543,-22.25612 c -0.34925,-0.23752 -2.74955,-1.88054 -5.334,-3.65114 -2.58445,-1.77061 -7.72795,-5.29436 -11.43,-7.83055 -8.07531,-5.5322 -10.18289,-6.99951 -10.55568,-7.34893 -0.25782,-0.24166 -0.28165,-0.30654 -0.28165,-0.76661 0,-0.27644 0.15436,-1.30064 0.34303,-2.276 0.18866,-0.97537 0.32876,-1.8496 0.31132,-1.94273 -0.0174,-0.0931 -1.85779,-2.91253 -4.08965,-6.26533 -5.52715,-8.30311 -5.46207,-8.20276 -5.05209,-7.78934 0.18472,0.18627 1.49367,1.59517 2.90878,3.13089 7.40525,8.03637 11.99115,12.84522 20.18622,21.16759 9.92235,10.0765 13.77246,14.02466 13.66067,14.0086 -0.0176,-0.003 -0.3177,-0.19893 -0.66695,-0.43645 z m -74.374826,-1.23113 c 1.299389,-2.24668 12.699984,-20.28531 15.049734,-23.8125 1.862605,-2.79593 2.249698,-3.29954 2.537194,-3.30089 0.271058,-10e-4 2.293961,0.38844 4.202522,0.80962 0.722633,0.15947 1.359906,0.28994 1.416161,0.28994 0.05626,0 0.895768,-0.63962 1.865582,-1.42138 3.361686,-2.70984 11.839453,-9.5288 12.007963,-9.65843 0.0931,-0.0716 -3.76115,3.79218 -8.565086,8.58627 -4.803933,4.7941 -13.218709,13.25997 -18.699505,18.81304 -5.480796,5.55308 -9.983551,10.0965 -10.006123,10.0965 -0.02257,0 0.06363,-0.18097 0.191558,-0.40217 z m 50.636536,-2.44596 c -0.58142,-0.87828 -2.0239,-3.11627 -3.20552,-4.97332 l -2.14842,-3.37645 0.2322,-1.44298 c 0.2616,-1.62574 0.47823,-2.66238 0.56794,-2.71782 0.16275,-0.10059 5.7961,13.92225 5.65117,14.06718 -0.0221,0.0221 -0.51596,-0.67834 -1.09737,-1.55661 z m -28.58232,0.93257 c -0.0044,-0.23096 1.313136,-8.14288 1.816079,-10.90611 0.266278,-1.46297 0.429418,-2.16163 0.531244,-2.2751 0.434127,-0.48376 3.162736,-2.2313 3.326205,-2.13027 0.179928,0.1112 0.02421,0.95007 -0.415996,2.24104 -0.551505,1.61736 -4.819536,12.44398 -5.140059,13.03867 -0.106864,0.19827 -0.114298,0.20028 -0.117473,0.0318 z m 52.65927,-19.57188 c -0.11641,-0.0172 -0.97366,-0.22143 -1.90499,-0.45395 -1.35595,-0.33855 -7.83732,-1.84505 -12.38659,-2.8791 l -0.78725,-0.17893 -0.61148,-1.02914 c -0.33631,-0.56602 -0.66494,-1.19109 -0.73028,-1.38907 -0.10711,-0.32455 -0.10452,-0.37417 0.0264,-0.50466 0.20547,-0.20482 1.17376,-0.17664 2.07884,0.0605 1.01873,0.26691 1.70716,0.55167 6.82237,2.82202 2.5146,1.11607 4.9911,2.20065 5.50334,2.41015 1.85791,0.7599 2.70826,1.24806 1.98966,1.1422 z m -74.421993,-1.07625 c 0,-0.043 3.68291,-2.80424 7.254544,-5.43903 l 1.962877,-1.44802 1.339123,0.29276 c 1.362825,0.29795 2.351674,0.56793 2.54963,0.69613 0.09001,0.0583 0.09001,0.087 0,0.15921 -0.28752,0.23054 -12.825813,5.78131 -13.059048,5.78131 -0.02592,0 -0.04713,-0.0191 -0.04713,-0.0424 z m 50.238593,-5.20155 c -0.55271,-0.36955 -3.12222,-2.36028 -5.71002,-4.42383 -2.5878,-2.06356 -5.25013,-4.18055 -5.91628,-4.70443 -0.91211,-0.7173 -1.16149,-0.95231 -1.00991,-0.95175 0.11071,4.2e-4 3.47788,0.15258 7.48262,0.33816 l 7.28133,0.33743 14.52033,5.9e-4 c 7.98618,3.4e-4 17.9834,0.0259 22.21603,0.0569 l 7.69569,0.0563 -8.71169,1.9318 c -12.49329,2.77031 -21.90139,4.87281 -25.89903,5.78781 -6.58376,1.50693 -10.06996,2.24293 -10.62402,2.24293 -0.25907,0 -0.51178,-0.12814 -1.32505,-0.67191 z M 46.427574,115.66071 c -0.09313,-0.04 -0.131233,-0.0754 -0.08467,-0.0785 0.04657,-0.003 0.922867,-0.17652 1.947334,-0.38524 1.024466,-0.20871 6.796616,-1.33431 12.826999,-2.50134 6.030384,-1.16702 15.669683,-3.03684 21.420667,-4.15515 5.750983,-1.11831 10.499405,-2.04067 10.55205,-2.04969 0.05264,-0.009 1.65125,1.06753 3.552457,2.39234 4.627549,3.22458 5.916999,4.04001 9.442229,5.97113 1.42339,0.77974 1.42956,0.78437 1.11313,0.83668 -0.49476,0.0818 -60.579106,0.0519 -60.770199,-0.0302 z m 61.291576,-4.31799 c 0.0265,-2.30505 0.0908,-7.33425 0.14285,-11.176 0.0956,-7.059528 0.0469,-45.649108 -0.0587,-46.524338 -0.0816,-0.67572 0.0958,-0.36173 0.33479,0.59267 0.44858,1.79148 1.13438,5.34158 5.42185,28.067 2.90261,15.38503 3.43735,18.245498 3.43735,18.387318 0,0.075 -1.49794,2.4931 -3.32874,5.37365 -1.83081,2.88055 -3.76439,5.92948 -4.29684,6.77541 -0.53245,0.84592 -1.13294,1.79842 -1.33442,2.11666 l -0.36632,0.57863 z m 0.50771,3.8074 c 1.38837,-1.5858 33.13523,-33.954368 34.84432,-35.526678 0.73332,-0.67463 0.84362,-0.90532 -0.95694,2.00128 -1.5131,2.44255 -11.92243,18.961618 -13.17792,20.912658 -1.78865,2.7796 -2.87455,4.23334 -3.16217,4.23334 -0.0729,0 -1.03934,-0.15225 -2.14759,-0.33834 -1.10824,-0.18608 -2.09283,-0.33848 -2.18797,-0.33866 -0.20253,-4.3e-4 -6.31507,4.25396 -13.11968,9.13136 l -0.42334,0.30344 z m -7.87956,-6.87657 C 96.49076,104.35031 89.961721,97.711382 85.838329,93.520382 c -6.453973,-6.55979 -11.516797,-11.73506 -14.55577,-14.87904 -0.439459,-0.45464 -0.757516,-0.82662 -0.706794,-0.82662 0.106998,0 0.588519,0.32564 6.693951,4.52698 2.501688,1.72149 7.596524,5.22362 11.321857,7.7825 7.005236,4.81182 8.098086,5.58755 8.584094,6.09317 0.341087,0.35485 0.349317,0.19618 -0.149574,2.88333 l -0.344395,1.854988 1.738548,2.33601 c 0.956201,1.28481 3.022124,4.05664 4.590934,6.15962 3.44934,4.62381 4.42938,5.9554 4.38314,5.9554 -0.0193,0 -3.19047,-3.20993 -7.04702,-7.13317 z m 31.5936,-0.19903 c -0.2794,-0.0711 -1.03453,-0.23742 -1.67806,-0.36964 -0.64355,-0.13223 -1.18694,-0.25728 -1.20755,-0.27789 -0.0206,-0.0206 0.22017,-0.15272 0.53507,-0.29358 8.7211,-3.90113 14.55048,-6.45869 14.72109,-6.45869 0.29057,0 -8.34585,6.30783 -9.67948,7.06966 -0.7153,0.40862 -0.76613,0.42396 -1.46207,0.44135 -0.42832,0.0107 -0.92721,-0.0344 -1.229,-0.11121 z m -46.56666,-1.46119 c -3.597652,-1.44831 -13.452442,-5.78875 -14.901333,-6.56314 l -0.423333,-0.226258 0.381,0.0539 c 1.819917,0.257478 14.526011,3.267108 14.940962,3.538988 0.358454,0.23487 2.161704,3.18167 2.161704,3.53257 0,0.1401 -0.230673,0.24189 -0.550333,0.24286 -0.09313,2.5e-4 -0.817034,-0.26023 -1.608667,-0.57892 z m 31.22083,-10.995808 c -0.19625,-0.0685 -0.11639,-0.90391 0.18726,-1.95886 0.16119,-0.56004 0.58262,-1.80449 0.93651,-2.76544 1.06788,-2.89975 4.67519,-11.8586 4.74628,-11.78751 0.0152,0.0152 -0.0675,0.54051 -0.18362,1.16745 -0.24009,1.29588 -1.81353,10.71958 -2.03199,12.17006 l -0.14382,0.95485 -0.51706,0.40757 c -0.8096,0.63817 -2.38552,1.66733 -2.76072,1.80291 -0.0699,0.0252 -0.17463,0.0293 -0.23284,0.009 z m -18.839898,-4.18743 c -0.261714,-0.66644 -1.241777,-3.13576 -2.177917,-5.48737 -1.664022,-4.18009 -2.880984,-7.32515 -2.877713,-7.43705 0.0046,-0.15598 4.291183,6.58788 5.26541,8.28371 0.855593,1.48933 0.957398,1.78554 0.945724,2.75167 -0.0079,0.65569 -0.07018,1.0731 -0.276025,1.85055 -0.146187,0.55214 -0.296809,1.0593 -0.334715,1.12704 -0.04718,0.0843 -0.218999,-0.25902 -0.544764,-1.08855 z" />
  </g>
</svg>
